<svg width="201" height="32" viewBox="0 0 201 32" fill="none" xmlns="http://www.w3.org/2000/svg">
<path d="M21.1479 23.7912C24.3479 23.7912 26.9914 21.2868 26.9914 18.0868H15.3044C15.3044 21.1477 17.9479 23.7912 21.1479 23.7912Z" fill="#F94345"/>
<path d="M37.1478 8.76522V2C37.1478 0.89543 36.2524 0 35.1478 0H7.0087C5.90413 0 5.0087 0.89543 5.0087 2V8.76522H2C0.89543 8.76522 0 9.66065 0 10.7652V21.2348C0 22.3394 0.89543 23.2348 2 23.2348H5.0087V30C5.0087 31.1046 5.90413 32 7.0087 32H35.1478C36.2524 32 37.1478 31.1046 37.1478 30V23.2348H40.0174C41.122 23.2348 42.0174 22.3394 42.0174 21.2348V10.7652C42.0174 9.66065 41.122 8.76522 40.0174 8.76522H37.1478ZM5.0087 20.0348H4.10435C3.60489 20.0348 3.2 19.6299 3.2 19.1304V12.8C3.2 12.2621 3.63604 11.8261 4.17391 11.8261C4.71179 11.8261 5.14783 12.2621 5.14783 12.8V19.9652C5.14783 20.0037 5.11668 20.0348 5.07827 20.0348H5.0087ZM32.087 28.8H10.2087C9.10413 28.8 8.2087 27.9046 8.2087 26.8V5.06087C8.2087 3.9563 9.10413 3.06087 10.2087 3.06087H32.087C33.1916 3.06087 34.087 3.9563 34.087 5.06087V26.8C34.087 27.9046 33.1916 28.8 32.087 28.8ZM38.1217 20.0348C37.6607 20.0348 37.287 19.6611 37.287 19.2001V12.6608C37.287 12.1998 37.6607 11.8261 38.1217 11.8261C38.5828 11.8261 38.9565 12.1998 38.9565 12.6608V19.2001C38.9565 19.6611 38.5828 20.0348 38.1217 20.0348Z" fill="#F94345"/>
<path d="M29.2175 12.8C29.2175 14.0522 28.1044 15.1652 26.8523 15.1652C25.4609 15.1652 24.487 14.0522 24.487 12.8C24.487 11.5479 25.6001 10.4348 26.8523 10.4348C28.2436 10.4348 29.2175 11.4087 29.2175 12.8ZM17.6696 12.8C17.6696 14.0522 16.5566 15.1652 15.3044 15.1652C13.9131 15.1652 12.9392 14.0522 12.9392 12.8C12.9392 11.5479 14.0523 10.4348 15.3044 10.4348C16.6957 10.4348 17.6696 11.4087 17.6696 12.8Z" fill="#F94345"/>
<path d="M63.4521 22H61.2285L55.5244 12.9209V22H53.3008V9.20312H55.5244L61.2461 18.3174V9.20312H63.4521V22ZM71.6348 21.0684C71.0078 21.8066 70.1172 22.1758 68.9629 22.1758C67.9316 22.1758 67.1494 21.874 66.6162 21.2705C66.0889 20.667 65.8252 19.7939 65.8252 18.6514V12.4902H67.9609V18.625C67.9609 19.832 68.4619 20.4355 69.4639 20.4355C70.501 20.4355 71.2012 20.0635 71.5645 19.3193V12.4902H73.7002V22H71.6875L71.6348 21.0684ZM79.29 15.6191L81.1006 12.4902H83.4736L80.5645 17.1748L83.5703 22H81.2148L79.3164 18.748L77.4268 22H75.0537L78.0596 17.1748L75.1592 12.4902H77.5146L79.29 15.6191ZM87.6045 10.1787V12.4902H89.2832V14.0723H87.6045V19.3809C87.6045 19.7441 87.6748 20.0078 87.8154 20.1719C87.9619 20.3301 88.2197 20.4092 88.5889 20.4092C88.835 20.4092 89.084 20.3799 89.3359 20.3213V21.9736C88.8496 22.1084 88.3809 22.1758 87.9297 22.1758C86.2891 22.1758 85.4688 21.2705 85.4688 19.46V14.0723H83.9043V12.4902H85.4688V10.1787H87.6045Z" fill="#F94345"/>
<path d="M105.376 17.834C105.247 19.1992 104.743 20.2656 103.864 21.0332C102.985 21.7949 101.816 22.1758 100.357 22.1758C99.3379 22.1758 98.4385 21.9355 97.6592 21.4551C96.8857 20.9688 96.2881 20.2803 95.8662 19.3896C95.4443 18.499 95.2246 17.4648 95.207 16.2871V15.0918C95.207 13.8848 95.4209 12.8213 95.8486 11.9014C96.2764 10.9814 96.8887 10.2725 97.6855 9.77441C98.4883 9.27637 99.4141 9.02734 100.463 9.02734C101.875 9.02734 103.012 9.41113 103.873 10.1787C104.734 10.9463 105.235 12.0303 105.376 13.4307H103.161C103.056 12.5107 102.786 11.8486 102.353 11.4443C101.925 11.0342 101.295 10.8291 100.463 10.8291C99.4961 10.8291 98.752 11.1836 98.2305 11.8926C97.7148 12.5957 97.4512 13.6299 97.4395 14.9951V16.1289C97.4395 17.5117 97.6855 18.5664 98.1777 19.293C98.6758 20.0195 99.4023 20.3828 100.357 20.3828C101.23 20.3828 101.887 20.1865 102.326 19.7939C102.766 19.4014 103.044 18.748 103.161 17.834H105.376ZM106.765 17.1572C106.765 16.2256 106.949 15.3877 107.318 14.6436C107.688 13.8936 108.206 13.3193 108.874 12.9209C109.542 12.5166 110.31 12.3145 111.177 12.3145C112.46 12.3145 113.5 12.7275 114.297 13.5537C115.1 14.3799 115.533 15.4756 115.598 16.8408L115.606 17.3418C115.606 18.2793 115.425 19.1172 115.062 19.8555C114.704 20.5938 114.188 21.165 113.515 21.5693C112.847 21.9736 112.073 22.1758 111.194 22.1758C109.853 22.1758 108.777 21.7305 107.969 20.8398C107.166 19.9434 106.765 18.751 106.765 17.2627V17.1572ZM108.9 17.3418C108.9 18.3203 109.103 19.0879 109.507 19.6445C109.911 20.1953 110.474 20.4707 111.194 20.4707C111.915 20.4707 112.475 20.1895 112.873 19.627C113.277 19.0645 113.479 18.2412 113.479 17.1572C113.479 16.1963 113.271 15.4346 112.855 14.8721C112.445 14.3096 111.886 14.0283 111.177 14.0283C110.479 14.0283 109.926 14.3066 109.516 14.8633C109.105 15.4141 108.9 16.2402 108.9 17.3418ZM119.395 12.4902L119.456 13.5889C120.159 12.7393 121.082 12.3145 122.225 12.3145C124.205 12.3145 125.213 13.4482 125.248 15.7158V22H123.112V15.8389C123.112 15.2354 122.98 14.79 122.717 14.5029C122.459 14.21 122.034 14.0635 121.442 14.0635C120.581 14.0635 119.939 14.4531 119.518 15.2324V22H117.382V12.4902H119.395ZM130.108 10.1787V12.4902H131.787V14.0723H130.108V19.3809C130.108 19.7441 130.179 20.0078 130.319 20.1719C130.466 20.3301 130.724 20.4092 131.093 20.4092C131.339 20.4092 131.588 20.3799 131.84 20.3213V21.9736C131.354 22.1084 130.885 22.1758 130.434 22.1758C128.793 22.1758 127.973 21.2705 127.973 19.46V14.0723H126.408V12.4902H127.973V10.1787H130.108ZM137.614 22.1758C136.261 22.1758 135.162 21.751 134.318 20.9014C133.48 20.0459 133.062 18.9092 133.062 17.4912V17.2275C133.062 16.2783 133.243 15.4316 133.606 14.6875C133.976 13.9375 134.491 13.3545 135.153 12.9385C135.815 12.5225 136.554 12.3145 137.368 12.3145C138.663 12.3145 139.662 12.7275 140.365 13.5537C141.074 14.3799 141.429 15.5488 141.429 17.0605V17.9219H135.215C135.279 18.707 135.54 19.3281 135.997 19.7852C136.46 20.2422 137.04 20.4707 137.737 20.4707C138.716 20.4707 139.513 20.0752 140.128 19.2842L141.279 20.3828C140.898 20.9512 140.389 21.3936 139.75 21.71C139.117 22.0205 138.405 22.1758 137.614 22.1758ZM137.359 14.0283C136.773 14.0283 136.299 14.2334 135.936 14.6436C135.578 15.0537 135.35 15.625 135.25 16.3574H139.319V16.1992C139.272 15.4844 139.082 14.9453 138.748 14.582C138.414 14.2129 137.951 14.0283 137.359 14.0283ZM145.076 12.4902L145.138 13.5889C145.841 12.7393 146.764 12.3145 147.906 12.3145C149.887 12.3145 150.895 13.4482 150.93 15.7158V22H148.794V15.8389C148.794 15.2354 148.662 14.79 148.398 14.5029C148.141 14.21 147.716 14.0635 147.124 14.0635C146.263 14.0635 145.621 14.4531 145.199 15.2324V22H143.063V12.4902H145.076ZM155.79 10.1787V12.4902H157.469V14.0723H155.79V19.3809C155.79 19.7441 155.86 20.0078 156.001 20.1719C156.147 20.3301 156.405 20.4092 156.774 20.4092C157.021 20.4092 157.27 20.3799 157.521 20.3213V21.9736C157.035 22.1084 156.566 22.1758 156.115 22.1758C154.475 22.1758 153.654 21.2705 153.654 19.46V14.0723H152.09V12.4902H153.654V10.1787H155.79ZM163.797 22V9.20312H168.183C169.63 9.20312 170.731 9.49316 171.487 10.0732C172.243 10.6533 172.621 11.5176 172.621 12.666C172.621 13.252 172.463 13.7793 172.146 14.248C171.83 14.7168 171.367 15.0801 170.758 15.3379C171.449 15.5254 171.982 15.8799 172.357 16.4014C172.738 16.917 172.929 17.5381 172.929 18.2646C172.929 19.4658 172.542 20.3887 171.769 21.0332C171.001 21.6777 169.899 22 168.464 22H163.797ZM166.021 16.2256V20.2246H168.49C169.188 20.2246 169.732 20.0518 170.125 19.7061C170.518 19.3604 170.714 18.8799 170.714 18.2646C170.714 16.9346 170.034 16.2549 168.675 16.2256H166.021ZM166.021 14.5908H168.2C168.892 14.5908 169.431 14.4355 169.817 14.125C170.21 13.8086 170.406 13.3633 170.406 12.7891C170.406 12.1562 170.225 11.6992 169.861 11.418C169.504 11.1367 168.944 10.9961 168.183 10.9961H166.021V14.5908ZM177.218 22H175.082V8.5H177.218V22ZM179.151 17.1572C179.151 16.2256 179.336 15.3877 179.705 14.6436C180.074 13.8936 180.593 13.3193 181.261 12.9209C181.929 12.5166 182.696 12.3145 183.563 12.3145C184.847 12.3145 185.887 12.7275 186.684 13.5537C187.486 14.3799 187.92 15.4756 187.984 16.8408L187.993 17.3418C187.993 18.2793 187.812 19.1172 187.448 19.8555C187.091 20.5938 186.575 21.165 185.901 21.5693C185.233 21.9736 184.46 22.1758 183.581 22.1758C182.239 22.1758 181.164 21.7305 180.355 20.8398C179.553 19.9434 179.151 18.751 179.151 17.2627V17.1572ZM181.287 17.3418C181.287 18.3203 181.489 19.0879 181.894 19.6445C182.298 20.1953 182.86 20.4707 183.581 20.4707C184.302 20.4707 184.861 20.1895 185.26 19.627C185.664 19.0645 185.866 18.2412 185.866 17.1572C185.866 16.1963 185.658 15.4346 185.242 14.8721C184.832 14.3096 184.272 14.0283 183.563 14.0283C182.866 14.0283 182.312 14.3066 181.902 14.8633C181.492 15.4141 181.287 16.2402 181.287 17.3418ZM189.426 17.1748C189.426 15.6982 189.771 14.5205 190.463 13.6416C191.16 12.7568 192.083 12.3145 193.231 12.3145C194.315 12.3145 195.168 12.6924 195.789 13.4482L195.886 12.4902H197.811V21.71C197.811 22.958 197.421 23.9424 196.642 24.6631C195.868 25.3838 194.822 25.7441 193.504 25.7441C192.807 25.7441 192.124 25.5977 191.456 25.3047C190.794 25.0176 190.29 24.6396 189.944 24.1709L190.955 22.8877C191.611 23.667 192.42 24.0566 193.381 24.0566C194.09 24.0566 194.649 23.8633 195.06 23.4766C195.47 23.0957 195.675 22.5332 195.675 21.7891V21.1475C195.06 21.833 194.239 22.1758 193.214 22.1758C192.101 22.1758 191.189 21.7334 190.48 20.8486C189.777 19.9639 189.426 18.7393 189.426 17.1748ZM191.553 17.3594C191.553 18.3145 191.746 19.0674 192.133 19.6182C192.525 20.1631 193.067 20.4355 193.759 20.4355C194.62 20.4355 195.259 20.0664 195.675 19.3281V15.1445C195.271 14.4238 194.638 14.0635 193.776 14.0635C193.073 14.0635 192.525 14.3418 192.133 14.8984C191.746 15.4551 191.553 16.2754 191.553 17.3594Z" fill="white"/>
</svg>
